<?xml version="1.0" encoding="utf-8"?>
<!-- Generator: Adobe Illustrator 16.0.3, SVG Export Plug-In . SVG Version: 6.00 Build 0)  -->
<!DOCTYPE svg PUBLIC "-//W3C//DTD SVG 1.1//EN" "http://www.w3.org/Graphics/SVG/1.1/DTD/svg11.dtd">
<svg version="1.1" id="Layer_1" xmlns="http://www.w3.org/2000/svg" xmlns:xlink="http://www.w3.org/1999/xlink" x="0px" y="0px"
	 width="447.812px" height="95.286px" viewBox="0 0 447.812 95.286" enable-background="new 0 0 447.812 95.286"
	 xml:space="preserve">
<g id="XMLID_300_">
	
		<rect id="XMLID_304_" x="0.493" y="0.512" opacity="0" fill="#FFFFFF" stroke="#FFFFFF" stroke-width="34.0157" stroke-miterlimit="10" width="447.029" height="95.04"/>
	<g id="XMLID_302_">
		<path id="XMLID_246_" fill="#EE7203" d="M335.516,15.672c-5.436-2.942-9.888-0.488-13.346,12.081
			c-0.993,4.414-0.136,13.263,1.479,12.496c11.365-5.412,17.293-13.727,17.293-16.709C340.942,21.833,336.872,16.409,335.516,15.672
			L335.516,15.672z"/>
		<g id="XMLID_303_">
			<path id="XMLID_243_" d="M260.802,68.167c1.52-3.322,3.029-6.391,4.623-9.619c0.578-1.18,1.177-2.391,1.791-3.652l36.672-6.943
				l-1.4-7.548l-31.204,5.907c1.488-3.25,3.083-6.887,4.819-11.075l-7.003-2.969c-2.63,6.343-4.938,11.403-7.03,15.788l-8.674,1.644
				l1.4,7.547l3.072-0.582c-1.352,2.742-2.648,5.416-3.952,8.264c-0.707,1.535-1.426,2.885-2.105,4.158
				c-0.083,0.154-0.158,0.309-0.239,0.459l-0.098-0.285l-10.547,3.789c-31.268,11.252-45.53,16.406-60.044,14.383
				c-4.536-0.617-9.981-3.592-12.387-7.123c10.223,1.293,23.557-2.242,29.063-8.143c2.705-2.902,3.563-6.334,2.418-9.656
				c-1.933-5.658-11.969-13.084-22.704-11.307c-11.721,1.936-19.408,13.928-17.495,27.307c1.357,9.59,12.787,15.539,20.082,16.535
				c2.456,0.342,4.875,0.504,7.326,0.504c13.85,0,28.701-5.34,56.283-15.264l4.564-1.637c-0.259,1.369-0.426,2.838-0.426,4.496
				c0,3.701,1.799,5.588,3.293,6.51c2.209,1.377,4.468,1.951,6.801,1.951c5.053,0,10.441-2.688,16.387-5.648
				c3.975-1.98,8.479-4.229,13.556-6.064l-2.562-7.232c-5.479,1.99-10.193,4.332-14.35,6.408
				c-7.932,3.953-12.563,6.088-15.533,4.076c0-4.219,1.311-6.686,3.295-10.422C259.239,71.329,260.022,69.851,260.802,68.167z
				 M178.487,58.784c7.344-1.166,13.646,4.281,14.32,6.248c0.075,0.223,0.258,0.754-0.771,1.857
				c-3.857,4.135-16.646,7.424-24.885,5.385C167.897,64.567,173.056,59.681,178.487,58.784z"/>
			<polygon id="XMLID_242_" points="305.421,86.427 312.735,88.796 323.847,55.735 316.534,53.364 			"/>
			<path id="XMLID_241_" d="M444.272,56.144c-1.996-2.748-5.897-6.117-13.203-6.533c-10.268-0.548-16.119,7.357-17.492,15.488
				c-1.516,9.088,3.15,12.729,6.068,14.092c4.511,2.111,12.117,1.613,14.248-0.959l-3.734-3.168l-1.006-2.619
				c-1.086,0.424-5.226,0.85-7.11-0.711c-1.098-0.904-1.423-2.705-0.983-5.35c0.169-0.975,2.168-9.486,9.577-9.107
				c3.493,0.199,6.019,1.348,7.515,3.408c1.875,2.598,2.294,6.932,1.125,11.592c-1.859,7.299-8.725,11.939-20.986,14.184
				c-14.143,2.588-41.851,2.85-60.466-10.758c4.456-4.184,9.611-8.633,15.847-13.191l-4.446-6.225
				c-7.839,5.73-14.045,11.27-19.237,16.326c5.922-17.18,11.361-31.867,17.676-48.484l-7.09-2.754
				c-8.191,21.571-14.925,39.906-23.139,64.617l6.297,3.924l3.158-3.27c1.659-1.725,3.424-3.561,5.32-5.477
				c15.119,11.691,34.479,14.381,48.676,14.381c9.722,0,16.994-1.209,18.754-1.531c15.273-2.797,24.351-9.469,26.991-19.838
				C448.386,67.212,447.526,60.638,444.272,56.144z"/>
		</g>
	</g>
	<g id="XMLID_301_">
		<linearGradient id="XMLID_2_" gradientUnits="userSpaceOnUse" x1="85.1523" y1="55.9727" x2="139.957" y2="55.9727">
			<stop  offset="0" style="stop-color:#E30613"/>
			<stop  offset="0.7" style="stop-color:#EF7D00"/>
			<stop  offset="0.7796" style="stop-color:#F08300"/>
			<stop  offset="0.9006" style="stop-color:#F49500"/>
			<stop  offset="1" style="stop-color:#F7A600"/>
		</linearGradient>
		<polygon id="XMLID_240_" fill="url(#XMLID_2_)" points="120.05,95.552 85.152,95.552 85.152,29.694 139.957,16.394 		"/>
		<linearGradient id="XMLID_3_" gradientUnits="userSpaceOnUse" x1="14.8892" y1="47.6812" x2="88.7749" y2="54.1453">
			<stop  offset="0.25" style="stop-color:#5BC5F2"/>
			<stop  offset="0.3427" style="stop-color:#4EBEEB"/>
			<stop  offset="0.4939" style="stop-color:#21ABD8"/>
			<stop  offset="0.6848" style="stop-color:#008CB8"/>
			<stop  offset="0.9058" style="stop-color:#00668C"/>
			<stop  offset="1" style="stop-color:#005578"/>
		</linearGradient>
		<polygon id="XMLID_239_" fill="url(#XMLID_3_)" points="85.152,11.275 85.152,95.552 18.791,95.552 19.016,0.512 		"/>
		<linearGradient id="XMLID_4_" gradientUnits="userSpaceOnUse" x1="1.6953" y1="80.416" x2="113.8927" y2="60.6326">
			<stop  offset="0" style="stop-color:#F5B5D2"/>
			<stop  offset="0.36" style="stop-color:#E8308A"/>
			<stop  offset="0.4938" style="stop-color:#CD2A87"/>
			<stop  offset="0.6571" style="stop-color:#AF2485"/>
			<stop  offset="0.8018" style="stop-color:#972183"/>
			<stop  offset="0.9211" style="stop-color:#882082"/>
			<stop  offset="1" style="stop-color:#831F82"/>
		</linearGradient>
		<polygon id="XMLID_238_" fill="url(#XMLID_4_)" points="12.491,95.552 0.493,73.599 85.152,29.694 120.05,95.552 		"/>
		<linearGradient id="XMLID_5_" gradientUnits="userSpaceOnUse" x1="59.0723" y1="77.5498" x2="120.3547" y2="34.6394">
			<stop  offset="0" style="stop-color:#967C29"/>
			<stop  offset="0.28" style="stop-color:#E9B400"/>
			<stop  offset="0.3193" style="stop-color:#EEBF00"/>
			<stop  offset="0.4137" style="stop-color:#F9D600"/>
			<stop  offset="0.4939" style="stop-color:#FFE400"/>
			<stop  offset="0.55" style="stop-color:#FFE900"/>
			<stop  offset="0.6" style="stop-color:#FFE900"/>
			<stop  offset="0.6832" style="stop-color:#FFE500"/>
			<stop  offset="0.7974" style="stop-color:#FFD900"/>
			<stop  offset="0.9292" style="stop-color:#FAC600"/>
			<stop  offset="1" style="stop-color:#F8B900"/>
		</linearGradient>
		<polygon id="XMLID_237_" fill="url(#XMLID_5_)" points="99.345,4.634 120.05,95.552 30.554,36.821 		"/>
	</g>
</g>
</svg>
